# Blender v3.2.1 OBJ File: ''
# www.blender.org
mtllib Dummy.mtl
o Dummy_立方体
v 0.375000 0.750000 -0.375000
v 0.375000 1.500000 -0.375000
v 0.056250 1.068750 0.375000
v 0.056250 1.181250 0.375000
v -0.375000 0.750000 -0.375000
v -0.375000 1.500000 -0.375000
v -0.056250 1.068750 0.375000
v -0.056250 1.181250 0.375000
v 0.375000 1.500000 0.375000
v 0.375000 0.750000 0.375000
v -0.375000 0.750000 0.375000
v -0.375000 1.500000 0.375000
v 0.168750 0.937500 -0.168750
v -0.150000 -1.312500 0.150000
v 0.168750 0.937500 0.168750
v -0.150000 -1.312500 -0.150000
v -0.168750 0.937500 -0.168750
v 0.150000 -1.312500 0.150000
v -0.168750 0.937500 0.168750
v 0.150000 -1.312500 -0.150000
v -0.150000 0.300000 0.150000
v 0.150000 0.300000 -0.150000
v -0.150000 0.300000 -0.150000
v 0.150000 0.300000 0.150000
v 0.150000 0.562500 -0.150000
v -0.150000 0.562500 0.150000
v -0.150000 0.562500 -0.150000
v 0.150000 0.562500 0.150000
v 0.900000 0.562500 0.150000
v 0.900000 0.300000 0.150000
v 0.900000 0.300000 -0.150000
v 0.900000 0.562500 -0.150000
v -0.900000 0.562500 0.150000
v -0.900000 0.300000 0.150000
v -0.900000 0.562500 -0.150000
v -0.900000 0.300000 -0.150000
v 0.375000 1.500000 0.375000
v 0.375000 0.750000 0.375000
v -0.375000 0.750000 0.375000
v -0.375000 1.500000 0.375000
v -0.150000 0.937500 -0.150000
v 0.150000 0.937500 -0.150000
v -0.150000 0.937500 0.150000
v 0.150000 0.937500 0.150000
v 0.056250 1.181250 0.750000
v 0.056250 1.068750 0.750000
v -0.056250 1.068750 0.750000
v -0.056250 1.181250 0.750000
vt 0.800364 0.643041
vt 0.656876 0.499552
vt 0.800364 0.499552
vt 0.848472 0.899911
vt 0.826949 0.971655
vt 0.826949 0.899911
vt 0.600185 0.643041
vt 0.456697 0.499552
vt 0.600185 0.499552
vt 0.400006 0.643041
vt 0.256518 0.499552
vt 0.400006 0.499552
vt 0.800364 0.699731
vt 0.656876 0.843220
vt 0.656876 0.699731
vt 0.600185 0.699731
vt 0.456697 0.843220
vt 0.456697 0.699731
vt 0.808584 0.428703
vt 0.808584 0.428703
vt 0.808584 0.428703
vt 0.808584 0.428703
vt 0.808584 0.428703
vt 0.808584 0.428703
vt 0.808584 0.428703
vt 0.808584 0.428703
vt 0.256518 0.964480
vt 0.321087 0.899911
vt 0.321087 0.964480
vt 0.128192 0.052551
vt 0.210491 0.093397
vt 0.158449 0.117603
vt 0.549260 0.971654
vt 0.491865 0.899910
vt 0.549260 0.899910
vt 0.663346 0.899911
vt 0.605951 0.957306
vt 0.605951 0.899911
vt 0.435174 0.971654
vt 0.377779 0.899910
vt 0.435174 0.899910
vt 0.518312 0.052551
vt 0.600610 0.093397
vt 0.548568 0.117603
vt 0.569748 0.163139
vt 0.751893 0.418656
vt 0.699852 0.442862
vt 0.199827 0.808052
vt 0.142432 0.499553
vt 0.199827 0.499553
vt 0.085741 0.808052
vt 0.028346 0.499553
vt 0.085741 0.499553
vt 0.179629 0.163139
vt 0.361774 0.418656
vt 0.309732 0.442862
vt 0.621789 0.138934
vt 0.028345 0.178116
vt 0.418465 0.178116
vt 0.231670 0.138934
vt 0.149606 0.922138
vt 0.199827 0.864743
vt 0.199827 0.922138
vt 0.914450 0.499553
vt 0.857055 0.643041
vt 0.857055 0.499553
vt 0.361774 0.078420
vt 0.808584 0.372013
vt 0.865979 0.228525
vt 0.865979 0.372013
vt 0.720037 0.957306
vt 0.770258 0.899911
vt 0.770258 0.957306
vt 0.857055 0.843220
vt 0.914450 0.699732
vt 0.914450 0.843220
vt 0.751893 0.078420
vt 0.865979 0.028346
vt 0.808584 0.171833
vt 0.808584 0.028346
vt 0.339023 0.760714
vt 0.400006 0.843220
vt 0.339023 0.782237
vt 0.317500 0.760714
vt 0.400006 0.699731
vt 0.256518 0.843220
vt 0.317500 0.782237
vt 0.256518 0.699731
vt 0.028346 0.864743
vt 0.031933 0.925725
vt 0.089328 0.925725
vt 0.028346 0.929312
vt 0.089328 0.868330
vt 0.092915 0.864743
vt 0.031933 0.868330
vt 0.092915 0.929312
vt 0.926687 0.921434
vt 0.905163 0.899911
vt 0.926687 0.899911
vt 0.922670 0.356960
vt 0.944193 0.285216
vt 0.944193 0.356960
vt 0.922670 0.228524
vt 0.944193 0.156780
vt 0.944193 0.228524
vt 0.922670 0.100090
vt 0.944193 0.028346
vt 0.944193 0.100090
vt 0.656876 0.643041
vt 0.848472 0.971655
vt 0.456697 0.643041
vt 0.256518 0.643041
vt 0.800364 0.843220
vt 0.600185 0.843220
vt 0.256518 0.899911
vt 0.180234 0.028346
vt 0.491865 0.971654
vt 0.663346 0.957306
vt 0.377779 0.971654
vt 0.570353 0.028346
vt 0.142432 0.808052
vt 0.028346 0.808052
vt 0.049525 0.223652
vt 0.439644 0.223652
vt 0.149606 0.864743
vt 0.914450 0.643041
vt 0.340594 0.032884
vt 0.808584 0.228525
vt 0.720037 0.899911
vt 0.857055 0.699732
vt 0.730713 0.032884
vt 0.865979 0.171833
vt 0.905163 0.921434
vt 0.922670 0.285216
vt 0.922670 0.156780
vt 0.922670 0.028346
vn 1.0000 0.0000 0.0000
vn -1.0000 0.0000 0.0000
vn 0.0000 0.0000 -1.0000
vn 0.0000 -1.0000 0.0000
vn 0.0000 1.0000 0.0000
vn 0.0000 0.0000 1.0000
usemtl Material
s off
f 2/1/1 10/2/1 1/3/1
f 7/4/2 48/5/2 8/6/2
f 12/7/2 5/8/2 11/9/2
f 6/10/3 1/11/3 5/12/3
f 11/13/4 1/14/4 10/15/4
f 9/16/5 6/17/5 12/18/5
f 37/19/6 10/20/6 9/21/6
f 38/22/6 11/23/6 10/20/6
f 40/24/6 9/21/6 12/25/6
f 39/26/6 12/25/6 11/23/6
f 17/27/5 15/28/5 13/29/5
f 41/30/3 25/31/3 27/32/3
f 42/33/1 28/34/1 25/35/1
f 14/36/4 20/37/4 18/38/4
f 43/39/2 27/40/2 26/41/2
f 44/42/6 26/43/6 28/44/6
f 24/45/6 14/46/6 18/47/6
f 21/48/2 16/49/2 14/50/2
f 22/51/1 18/52/1 20/53/1
f 23/54/3 20/55/3 16/56/3
f 28/44/6 21/57/6 24/45/6
f 23/54/3 35/58/3 27/32/3
f 24/45/6 29/59/6 28/44/6
f 27/32/3 22/60/3 23/54/3
f 32/61/1 30/62/1 31/63/1
f 28/64/5 32/65/5 25/66/5
f 25/31/3 31/67/3 22/60/3
f 22/68/4 30/69/4 24/70/4
f 33/71/2 36/72/2 34/73/2
f 27/74/5 33/75/5 26/76/5
f 26/43/6 34/77/6 21/57/6
f 21/78/4 36/79/4 23/80/4
f 3/81/6 37/82/6 4/83/6
f 7/84/6 38/85/6 3/81/6
f 4/83/6 40/86/6 8/87/6
f 8/87/6 39/88/6 7/84/6
f 15/89/5 42/90/5 41/91/5
f 13/92/5 41/91/5 43/93/5
f 19/94/5 44/95/5 42/90/5
f 17/96/5 43/93/5 44/95/5
f 45/97/6 47/98/6 46/99/6
f 3/100/4 47/101/4 7/102/4
f 8/103/5 45/104/5 4/105/5
f 4/106/1 46/107/1 3/108/1
f 2/1/1 9/109/1 10/2/1
f 7/4/2 47/110/2 48/5/2
f 12/7/2 6/111/2 5/8/2
f 6/10/3 2/112/3 1/11/3
f 11/13/4 5/113/4 1/14/4
f 9/16/5 2/114/5 6/17/5
f 37/19/6 38/22/6 10/20/6
f 38/22/6 39/26/6 11/23/6
f 40/24/6 37/19/6 9/21/6
f 39/26/6 40/24/6 12/25/6
f 17/27/5 19/115/5 15/28/5
f 41/30/3 42/116/3 25/31/3
f 42/33/1 44/117/1 28/34/1
f 14/36/4 16/118/4 20/37/4
f 43/39/2 41/119/2 27/40/2
f 44/42/6 43/120/6 26/43/6
f 24/45/6 21/57/6 14/46/6
f 21/48/2 23/121/2 16/49/2
f 22/51/1 24/122/1 18/52/1
f 23/54/3 22/60/3 20/55/3
f 28/44/6 26/43/6 21/57/6
f 23/54/3 36/123/3 35/58/3
f 24/45/6 30/124/6 29/59/6
f 27/32/3 25/31/3 22/60/3
f 32/61/1 29/125/1 30/62/1
f 28/64/5 29/126/5 32/65/5
f 25/31/3 32/127/3 31/67/3
f 22/68/4 31/128/4 30/69/4
f 33/71/2 35/129/2 36/72/2
f 27/74/5 35/130/5 33/75/5
f 26/43/6 33/131/6 34/77/6
f 21/78/4 34/132/4 36/79/4
f 3/81/6 38/85/6 37/82/6
f 7/84/6 39/88/6 38/85/6
f 4/83/6 37/82/6 40/86/6
f 8/87/6 40/86/6 39/88/6
f 15/89/4 19/94/4 42/90/4
f 13/92/4 15/89/4 41/91/4
f 19/94/4 17/96/4 44/95/4
f 17/96/4 13/92/4 43/93/4
f 45/97/6 48/133/6 47/98/6
f 3/100/4 46/134/4 47/101/4
f 8/103/5 48/135/5 45/104/5
f 4/106/1 45/136/1 46/107/1
