# Blender v3.2.1 OBJ File: ''
# www.blender.org
mtllib Stairs.mtl
o Cube
v 0.810000 1.100000 -0.810000
v 0.900000 1.000000 -0.900000
v 0.810000 1.100000 0.810000
v 0.900000 1.000000 0.900000
v -0.810000 1.100000 -0.810000
v -0.900000 1.000000 -0.900000
v -0.810000 1.100000 0.810000
v -0.900000 1.000000 0.900000
v 0.900000 1.100000 0.900000
v -0.900000 1.100000 0.900000
v 0.900000 1.100000 -0.900000
v -0.900000 1.100000 -0.900000
v 0.810000 1.050000 0.810000
v -0.810000 1.050000 0.810000
v 0.810000 1.050000 -0.810000
v -0.810000 1.050000 -0.810000
vt 0.595000 0.571000
vt 0.715000 0.787000
vt 0.595000 0.787000
vt 0.263000 0.263000
vt 0.023000 0.023000
vt 0.263000 0.023000
vt 0.263000 0.549000
vt 0.023000 0.309000
vt 0.263000 0.309000
vt 0.549000 0.023000
vt 0.309000 0.263000
vt 0.309000 0.023000
vt 0.549000 0.549000
vt 0.309000 0.309000
vt 0.549000 0.309000
vt 0.835000 0.263000
vt 0.595000 0.023000
vt 0.835000 0.023000
vt 0.251000 0.823000
vt 0.023000 0.835000
vt 0.035000 0.823000
vt 0.023000 0.595000
vt 0.035000 0.607000
vt 0.251000 0.607000
vt 0.263000 0.835000
vt 0.263000 0.595000
vt 0.811000 0.309000
vt 0.595000 0.525000
vt 0.595000 0.309000
vt 0.309000 0.595000
vt 0.429000 0.811000
vt 0.309000 0.811000
vt 0.761000 0.571000
vt 0.881000 0.787000
vt 0.761000 0.787000
vt 0.857000 0.309000
vt 0.977000 0.525000
vt 0.857000 0.525000
vt 0.715000 0.571000
vt 0.023000 0.263000
vt 0.023000 0.549000
vt 0.549000 0.263000
vt 0.309000 0.549000
vt 0.595000 0.263000
vt 0.811000 0.525000
vt 0.429000 0.595000
vt 0.881000 0.571000
vt 0.977000 0.309000
vn 1.0000 0.0000 0.0000
vn 0.0000 0.0000 1.0000
vn -1.0000 0.0000 0.0000
vn 0.0000 -1.0000 0.0000
vn 0.0000 0.0000 -1.0000
vn 0.0000 1.0000 -0.0000
usemtl Material
s off
f 7/1/1 16/2/1 5/3/1
f 9/4/2 8/5/2 4/6/2
f 10/7/3 6/8/3 8/9/3
f 2/10/4 8/11/4 6/12/4
f 11/13/1 4/14/1 2/15/1
f 12/16/5 2/17/5 6/18/5
f 7/19/6 9/20/6 3/21/6
f 3/21/6 11/22/6 1/23/6
f 5/24/6 10/25/6 7/19/6
f 1/23/6 12/26/6 5/24/6
f 16/27/6 13/28/6 15/29/6
f 3/30/5 14/31/5 7/32/5
f 5/33/2 15/34/2 1/35/2
f 1/36/3 13/37/3 3/38/3
f 7/1/1 14/39/1 16/2/1
f 9/4/2 10/40/2 8/5/2
f 10/7/3 12/41/3 6/8/3
f 2/10/4 4/42/4 8/11/4
f 11/13/1 9/43/1 4/14/1
f 12/16/5 11/44/5 2/17/5
f 7/19/6 10/25/6 9/20/6
f 3/21/6 9/20/6 11/22/6
f 5/24/6 12/26/6 10/25/6
f 1/23/6 11/22/6 12/26/6
f 16/27/6 14/45/6 13/28/6
f 3/30/5 13/46/5 14/31/5
f 5/33/2 16/47/2 15/34/2
f 1/36/3 15/48/3 13/37/3
